<mxfile host="app.diagrams.net" modified="2022-04-01T23:48:35.143Z" agent="5.0 (Windows NT 10.0; WOW64) AppleWebKit/537.36 (KHTML, like Gecko) Chrome/99.0.4844.88 Safari/537.36" etag="CxnOzLFR35ebKg6DDgEW" version="17.4.0" type="github">
  <diagram id="IIPopWwgl9i49zoU6beN" name="Page-1">
    <mxGraphModel dx="2161" dy="827" grid="1" gridSize="10" guides="1" tooltips="1" connect="1" arrows="1" fold="1" page="1" pageScale="1" pageWidth="827" pageHeight="1169" math="0" shadow="0">
      <root>
        <mxCell id="0" />
        <mxCell id="1" parent="0" />
        <mxCell id="BXYE2SOPVODeQwF73GL8-12" value="Persona" style="whiteSpace=wrap;html=1;align=center;" vertex="1" parent="1">
          <mxGeometry x="354" y="80" width="120" height="40" as="geometry" />
        </mxCell>
        <mxCell id="BXYE2SOPVODeQwF73GL8-13" value="Contacto" style="whiteSpace=wrap;html=1;align=center;" vertex="1" parent="1">
          <mxGeometry x="10" width="110" height="40" as="geometry" />
        </mxCell>
        <mxCell id="BXYE2SOPVODeQwF73GL8-14" value="CUIL" style="ellipse;whiteSpace=wrap;html=1;align=center;" vertex="1" parent="1">
          <mxGeometry x="576" width="100" height="40" as="geometry" />
        </mxCell>
        <mxCell id="BXYE2SOPVODeQwF73GL8-15" value="Nombre" style="ellipse;whiteSpace=wrap;html=1;align=center;" vertex="1" parent="1">
          <mxGeometry x="152" width="100" height="40" as="geometry" />
        </mxCell>
        <mxCell id="BXYE2SOPVODeQwF73GL8-16" value="Domicilio" style="ellipse;whiteSpace=wrap;html=1;align=center;" vertex="1" parent="1">
          <mxGeometry x="436" width="100" height="40" as="geometry" />
        </mxCell>
        <mxCell id="BXYE2SOPVODeQwF73GL8-19" value="Fecha de Nacimiento" style="ellipse;whiteSpace=wrap;html=1;align=center;" vertex="1" parent="1">
          <mxGeometry x="292" width="100" height="40" as="geometry" />
        </mxCell>
        <mxCell id="BXYE2SOPVODeQwF73GL8-21" value="Educación" style="whiteSpace=wrap;html=1;align=center;" vertex="1" parent="1">
          <mxGeometry x="349" y="160" width="130" height="40" as="geometry" />
        </mxCell>
        <mxCell id="BXYE2SOPVODeQwF73GL8-22" value="Experiencia" style="whiteSpace=wrap;html=1;align=center;" vertex="1" parent="1">
          <mxGeometry x="640" y="160" width="130" height="40" as="geometry" />
        </mxCell>
        <mxCell id="BXYE2SOPVODeQwF73GL8-23" value="Skills" style="whiteSpace=wrap;html=1;align=center;" vertex="1" parent="1">
          <mxGeometry x="60" y="160" width="120" height="40" as="geometry" />
        </mxCell>
        <mxCell id="BXYE2SOPVODeQwF73GL8-24" value="Argentina Programa" style="ellipse;whiteSpace=wrap;html=1;align=center;" vertex="1" parent="1">
          <mxGeometry x="280" y="320" width="124" height="40" as="geometry" />
        </mxCell>
        <mxCell id="BXYE2SOPVODeQwF73GL8-25" value="Udemy -&amp;nbsp; JS" style="ellipse;whiteSpace=wrap;html=1;align=center;" vertex="1" parent="1">
          <mxGeometry x="240" y="230" width="100" height="40" as="geometry" />
        </mxCell>
        <mxCell id="BXYE2SOPVODeQwF73GL8-26" value="Udemy - HTML/CSS" style="ellipse;whiteSpace=wrap;html=1;align=center;" vertex="1" parent="1">
          <mxGeometry x="466" y="230" width="110" height="40" as="geometry" />
        </mxCell>
        <mxCell id="BXYE2SOPVODeQwF73GL8-27" value="Udemy - Python" style="ellipse;whiteSpace=wrap;html=1;align=center;" vertex="1" parent="1">
          <mxGeometry x="430" y="320" width="100" height="40" as="geometry" />
        </mxCell>
        <mxCell id="BXYE2SOPVODeQwF73GL8-30" value="Otros Skills" style="whiteSpace=wrap;html=1;align=center;" vertex="1" parent="1">
          <mxGeometry x="146" y="500" width="100" height="40" as="geometry" />
        </mxCell>
        <mxCell id="BXYE2SOPVODeQwF73GL8-31" value="INVI Games" style="ellipse;whiteSpace=wrap;html=1;align=center;" vertex="1" parent="1">
          <mxGeometry x="650" y="240" width="110" height="40" as="geometry" />
        </mxCell>
        <mxCell id="BXYE2SOPVODeQwF73GL8-32" value="HTML" style="ellipse;whiteSpace=wrap;html=1;align=center;" vertex="1" parent="1">
          <mxGeometry x="-190" y="160" width="100" height="40" as="geometry" />
        </mxCell>
        <mxCell id="BXYE2SOPVODeQwF73GL8-33" value="CSS" style="ellipse;whiteSpace=wrap;html=1;align=center;" vertex="1" parent="1">
          <mxGeometry x="-190" y="210" width="100" height="40" as="geometry" />
        </mxCell>
        <mxCell id="BXYE2SOPVODeQwF73GL8-34" value="JavaScript" style="ellipse;whiteSpace=wrap;html=1;align=center;" vertex="1" parent="1">
          <mxGeometry x="-190" y="270" width="100" height="40" as="geometry" />
        </mxCell>
        <mxCell id="BXYE2SOPVODeQwF73GL8-35" value="TypeScript" style="ellipse;whiteSpace=wrap;html=1;align=center;" vertex="1" parent="1">
          <mxGeometry x="-160" y="330" width="100" height="40" as="geometry" />
        </mxCell>
        <mxCell id="BXYE2SOPVODeQwF73GL8-36" value="Angular" style="ellipse;whiteSpace=wrap;html=1;align=center;" vertex="1" parent="1">
          <mxGeometry x="-120" y="390" width="100" height="40" as="geometry" />
        </mxCell>
        <mxCell id="BXYE2SOPVODeQwF73GL8-37" value="MySQL" style="ellipse;whiteSpace=wrap;html=1;align=center;" vertex="1" parent="1">
          <mxGeometry x="-50" y="450" width="100" height="40" as="geometry" />
        </mxCell>
        <mxCell id="BXYE2SOPVODeQwF73GL8-38" value="Python" style="ellipse;whiteSpace=wrap;html=1;align=center;" vertex="1" parent="1">
          <mxGeometry x="10" y="500" width="100" height="40" as="geometry" />
        </mxCell>
        <mxCell id="BXYE2SOPVODeQwF73GL8-39" value="Suite Adobe" style="ellipse;whiteSpace=wrap;html=1;align=center;" vertex="1" parent="1">
          <mxGeometry x="284" y="440" width="100" height="40" as="geometry" />
        </mxCell>
        <mxCell id="BXYE2SOPVODeQwF73GL8-40" value="Edición audiovisual" style="ellipse;whiteSpace=wrap;html=1;align=center;" vertex="1" parent="1">
          <mxGeometry x="278" y="490" width="126" height="50" as="geometry" />
        </mxCell>
        <mxCell id="BXYE2SOPVODeQwF73GL8-41" value="Creacion de assets" style="ellipse;whiteSpace=wrap;html=1;align=center;" vertex="1" parent="1">
          <mxGeometry x="278" y="550" width="100" height="40" as="geometry" />
        </mxCell>
        <mxCell id="BXYE2SOPVODeQwF73GL8-42" value="Ingles" style="ellipse;whiteSpace=wrap;html=1;align=center;" vertex="1" parent="1">
          <mxGeometry x="278" y="600" width="100" height="40" as="geometry" />
        </mxCell>
        <mxCell id="BXYE2SOPVODeQwF73GL8-43" value="Frances" style="ellipse;whiteSpace=wrap;html=1;align=center;" vertex="1" parent="1">
          <mxGeometry x="178" y="610" width="100" height="40" as="geometry" />
        </mxCell>
      </root>
    </mxGraphModel>
  </diagram>
</mxfile>
